<?xml version="1.0" encoding="utf-8"?>
<!-- Generator: Adobe Illustrator 15.1.0, SVG Export Plug-In . SVG Version: 6.00 Build 0)  -->
<!DOCTYPE svg PUBLIC "-//W3C//DTD SVG 1.1//EN" "http://www.w3.org/Graphics/SVG/1.1/DTD/svg11.dtd" [
	<!ENTITY ns_flows "http://ns.adobe.com/Flows/1.0/">
	<!ENTITY ns_extend "http://ns.adobe.com/Extensibility/1.0/">
	<!ENTITY ns_ai "http://ns.adobe.com/AdobeIllustrator/10.0/">
	<!ENTITY ns_graphs "http://ns.adobe.com/Graphs/1.0/">
]>
<svg version="1.1" id="Layer_1" xmlns:x="&ns_extend;" xmlns:i="&ns_ai;" xmlns:graph="&ns_graphs;"
	 xmlns="http://www.w3.org/2000/svg" xmlns:xlink="http://www.w3.org/1999/xlink" xmlns:a="http://ns.adobe.com/AdobeSVGViewerExtensions/3.0/"
	 x="0px" y="0px" width="718.072px" height="79.279px" viewBox="0 0 718.072 79.279" enable-background="new 0 0 718.072 79.279"
	 xml:space="preserve">
<g>
	<g>
		<path fill="#FFFFFF" d="M578.411,16.054c2.971,3.218,6.271,6.435,10.479,8.085v0.99c-3.218,0-4.455,1.073-4.455,4.291v19.306
			c0,2.063,1.237,3.218,2.64,3.218c1.155,0,1.897-0.66,3.135-1.485l0.413,0.825l-11.881,9.983c-6.601-4.208-6.683-8.91-6.683-11.716
			V29.42c0-2.558,0-4.456-1.732-4.456c-0.743,0-1.98,0.66-2.723,1.32l-0.743-0.825L578.411,16.054z M584.186,6.731
			c0,3.383-3.3,5.775-6.766,7.673c-2.475-2.063-5.115-4.95-5.115-8.003c0-3.382,3.218-5.363,5.94-5.363
			C581.216,1.038,584.186,3.019,584.186,6.731z"/>
		<path fill="#FFFFFF" d="M595.57,29.42c0-2.888-1.319-3.96-2.888-3.96c-0.907,0-1.979,0.908-2.558,1.568l-0.66-1.073l10.891-9.9
			c4.043,2.228,7.508,4.538,7.591,9.9l11.221-9.818c4.043,2.228,7.508,4.538,7.59,9.9l13.531-9.983
			c2.228,3.218,5.527,6.435,9.735,8.085v0.99c-3.218,0-4.455,1.073-4.455,4.291v19.306c0,2.063,1.237,3.218,2.64,3.218
			c1.155,0,1.897-0.66,3.136-1.485l0.412,0.825l-11.881,9.983c-6.6-4.125-6.683-8.828-6.683-11.633V28.347
			c0-1.485-0.412-3.383-1.979-3.383c-0.66,0-1.403,0.33-1.98,0.743l-2.476,1.732v22.276c0,1.567,0.66,2.558,2.311,2.641v0.989
			c-4.208,1.155-7.013,4.538-8.415,7.921c-2.723-3.795-6.105-6.848-9.488-7.921v-0.989h0.99c1.649,0,2.228-1.65,2.228-4.538V27.192
			c0-1.898-1.073-2.311-1.732-2.311c-0.743,0-1.568,0.33-2.229,0.743l-2.475,1.732v22.359c0,1.567,0.66,2.558,2.31,2.641v0.989
			c-4.207,1.155-7.013,4.538-8.415,7.921c-2.723-3.795-6.105-6.848-10.478-7.921v-0.989h1.319c2.311,0,2.888-1.403,2.888-4.538
			V29.42z"/>
		<path fill="#FFFFFF" d="M681.783,30.575l-18.233,11.551c1.237,4.949,5.61,9.24,11.303,9.24c2.723,0,5.363-2.146,7.426-3.383
			l0.577,0.907c-5.28,4.043-10.973,7.673-15.923,12.376c-10.23-3.795-15.759-8.416-15.759-19.967c0-13.53,0.908-16.418,8.581-19.718
			l12.953-5.528L681.783,30.575z M671.222,35.525L663.466,21.5h-0.165c-0.082,5.445-0.247,10.891-0.247,15.181
			c0,2.145,0.083,3.053,0.247,3.959L671.222,35.525z"/>
		<path fill="#FFFFFF" d="M681.244,58.934c3.063-3.972,5.876-8.275,8.028-12.827c-4.056-1.986-7.2-4.8-7.2-9.682
			c0-9.931,12.91-12.249,16.386-20.524c2.069,2.482,4.811,4.291,8.028,4.551c2.813,0.227,9.171-0.568,8.452-6.039
			c0,0,0.872-0.339,0.879-0.31c0.253,1.172,0.476,2.365,0.476,3.678c0,7.625-5.504,8.878-6.331,12.603
			c4.469,0.828,8.11,4.799,8.11,9.434c0,9.765-8.11,10.014-16.138,22.096c-3.312-2.317-11.587-4.965-15.477-4.965
			c-2.068,0-3.145,0.828-4.138,2.564L681.244,58.934z M701.107,38.989c-4.553,0-9.021,3.889-10.842,8.027
			c6.373,0,12.33,2.565,17.709,5.959c0.911-1.159,1.159-2.73,1.159-4.139C709.133,43.872,706.568,38.989,701.107,38.989z
			 M699.037,37.499c4.221,0,8.359-4.138,9.932-7.613l-0.166-0.166c-1.158,0.828-2.896,1.159-4.469,1.159
			c-4.469,0-8.938-2.897-11.834-6.125c-1.241,0.581-1.49,2.07-1.49,3.311C691.009,32.451,694.238,37.499,699.037,37.499z"/>
		<path fill="#FFFFFF" d="M534.166,30.001l18.777-11.927l0.207,0.103l0.006,2.55v15.2c0,3.656-2.717,6.615-5.881,8.781
			l-10.084,6.406l-0.438-1.041c0,0,4.869-3.057,4.869-3.097c0-0.055-0.012-20.38-0.012-20.38l-6.822,4.333L534.166,30.001z"/>
		<path fill="#FFFFFF" d="M558.943,5.76c4.172,0.971,5.275-4.192-2.162-4.192c-0.016-0.078-0.078-0.688-0.098-0.762
			c0,0,3.879-1.004,6.676-0.254c2.846,0.764,6.105,3.139,6.105,8.329c0,5.573-6.605,10.871-15.811,8.226
			c-9.061-2.604-15.334-4.342-18.49-5.288c-5.694-1.706-7.738,4.613-3.051,6.645c0,0-0.332,0.636-0.393,0.776
			c-3.799-0.625-7.458-4.582-7.423-9.047c0.035-4.453,1.824-6.399,4.167-7.915c1.947-1.259,5.213-2.638,11.707-1.651
			C543.149,1.079,556.727,5.245,558.943,5.76z"/>
		<polygon fill="#FFFFFF" points="557.869,6.786 557.869,56.274 558.986,56.274 558.986,6.77 		"/>
		<path fill="#FFFFFF" d="M543.68,14.863c0.057,0.191,0.064,0.997,0.064,0.997c-10.625,5.25-13.022,30.066,0.307,34.758
			c9.156,3.224,19.631,1.246,23.545-10.084c0.25,0.021,1.094,0.005,1.094,0.005c-0.125,1.438-3.122,22.464-23.035,21.887
			c-19.285-0.559-22.928-15.746-22.928-23.25C522.727,32.302,526.53,19.128,543.68,14.863z"/>
	</g>
	<g>
		<g>
			<path fill="#FFFFFF" d="M152.104,30.406c0-0.72,1.247-1.819,2.843-1.819c1.611,0,2.828,1.133,2.828,1.819v1.867
				c0-0.965-1.155-2.587-2.828-2.587c-1.581,0-2.843,1.622-2.843,2.587V30.406z"/>
			<path fill="#FFFFFF" d="M157.774,23.642c0,0.721-1.231,1.819-2.828,1.819c-1.611,0-2.843-1.133-2.843-1.819v-1.866
				c0,0.964,1.17,2.586,2.843,2.586c1.581,0,2.828-1.623,2.828-2.586V23.642z"/>
			<path fill="#FFFFFF" d="M174.901,30.406c0-0.72,1.247-1.819,2.843-1.819c1.611,0,2.828,1.133,2.828,1.819v1.867
				c0-0.965-1.155-2.587-2.828-2.587c-1.581,0-2.843,1.622-2.843,2.587V30.406z"/>
			<path fill="#FFFFFF" d="M180.571,23.642c0,0.721-1.231,1.819-2.828,1.819c-1.611,0-2.843-1.133-2.843-1.819v-1.866
				c0,0.964,1.17,2.586,2.843,2.586c1.581,0,2.828-1.623,2.828-2.586V23.642z"/>
			<path fill="#FFFFFF" d="M177.408,56.701c3.971-3.216,16.297-8.212,16.297-13.998l0.009-25.305c0-2.519,1.186-5.827,5.215-5.827
				v-0.996c-5.222-3.278-9.046-7.49-11.159-10.527c-4.432,5.068-7.023,6.647-12.976,11.32l0.035,1.814
				c1.527-1.664,2.952-2.726,4.748-1.473c0.986,0.688,0.94,3.692,0.926,6.761l0,35.416l-9.584-8.359l0.019-33.935
				c0-7.313-4.806-10.264-6.656-11.575c-3.344,3.996-7.819,7.554-12.23,11.269c-0.001-0.184-0.014,1.841,0,1.824
				c1.249-1.601,3.163-2.653,4.712-1.399c0.851,0.688,0.941,3.378,0.941,5.976v33.101c0,0,13.909,9.362,14.983,10.463
				C172.702,61.266,175.226,58.469,177.408,56.701z"/>
			<path fill="#FFFFFF" d="M148.871,61.307c2.672-3.632,11.798-11.354,11.798-11.354c-0.294-0.412-0.79-1.116-0.79-1.116
				c-0.601,0.593-2.382,2.214-3.531,3.157c0,0-0.597-1.039-0.869-1.375c-1.798-2.222-4.42-4.178-7.382-5.063l-0.002-34.049
				c0.002-7.275-5.169-10.241-7.12-11.506c-3.156,3.606-9.166,8.427-13.997,12.459l0.746,0.953c1.197-0.995,2.909-2.503,4.495-2.038
				c2.832,0.83,2.663,5.869,2.679,6.914l0.036,26.945c-7.888,3.256-7.154,9.342-6.35,12.027c0.629,2.106,3.404,5.61,7.841,5.938
				l0.104-0.983c-1.352-0.219-3.067-0.786-3.067-2.982c0-3.693,4.397-4.493,5.902-4.493
				C144.367,54.739,147.387,59.024,148.871,61.307L148.871,61.307"/>
			<rect x="173.912" y="0.155" fill="#FFFFFF" width="1.062" height="51.348"/>
			<rect x="151.059" y="0.084" fill="#FFFFFF" width="1.087" height="52.027"/>
		</g>
		<path fill="#FFFFFF" d="M232.744,58.934c3.063-3.972,5.876-8.275,8.028-12.827c-4.056-1.986-7.2-4.8-7.2-9.682
			c0-9.931,12.91-12.249,16.386-20.524c2.069,2.482,4.811,4.291,8.028,4.551c2.813,0.227,9.171-0.568,8.452-6.039
			c0,0,0.872-0.339,0.879-0.31c0.253,1.172,0.476,2.365,0.476,3.678c0,7.625-5.504,8.878-6.331,12.603
			c4.469,0.828,8.11,4.799,8.11,9.434c0,9.765-8.11,10.014-16.138,22.096c-3.312-2.317-11.587-4.965-15.477-4.965
			c-2.068,0-3.145,0.828-4.138,2.564L232.744,58.934z M252.607,38.989c-4.553,0-9.021,3.889-10.842,8.027
			c6.373,0,12.33,2.565,17.709,5.959c0.911-1.159,1.159-2.73,1.159-4.139C260.633,43.872,258.068,38.989,252.607,38.989z
			 M250.537,37.499c4.221,0,8.359-4.138,9.932-7.613l-0.166-0.166c-1.158,0.828-2.896,1.159-4.469,1.159
			c-4.469,0-8.938-2.897-11.834-6.125c-1.241,0.581-1.49,2.07-1.49,3.311C242.509,32.451,245.738,37.499,250.537,37.499z"/>
		<path fill="#FFFFFF" d="M197.751,31.592c0-3.96,1.65-5.693,6.27-7.508c6.766-2.64,11.303-5.528,14.438-8.003
			c2.97,3.547,9.323,7.755,15.593,9.075v0.99c-3.135,0-4.62,1.155-4.62,4.125v16.666c0,2.31,0.247,5.528,2.475,5.528
			c0.99,0,1.65-0.578,3.135-1.32l0.495,0.907c-3.96,2.806-7.59,5.858-10.891,9.241c-3.465-2.476-7.178-5.528-7.425-9.406
			c-4.125,2.888-8.085,6.023-11.798,9.406c-6.848-4.043-7.673-6.436-7.673-11.387V31.592z M217.057,28.539
			c-2.475-1.073-4.95-3.383-6.93-5.198V49.33c0,2.31,0.495,3.96,2.063,3.96c0.743,0,1.32-0.247,1.732-0.577l3.135-2.31V28.539z"/>
		<path fill="#FFFFFF" d="M272.994,19.216c0-5.363-2.888-11.963-5.115-13.696l0.907-0.908c1.485,1.485,3.3,4.455,4.125,7.425h0.165
			c1.155-8.168,10.313-10.973,21.121-10.973h0.495V2.55h-1.814c-6.436,0-7.508,4.538-7.508,10.478v12.953l13.53-9.9
			c4.785,5.775,5.775,8.085,5.775,13.696v16.005c0,11.551-2.146,19.637-11.716,26.484c-3.795,2.723-8.085,4.785-12.211,7.013
			l-0.577-1.155c8.333-3.713,12.128-8.745,12.128-23.596V30.189c0-2.64-0.33-5.28-2.393-5.28c-0.825,0-1.402,0.33-1.814,0.66
			l-2.723,1.98v21.616c0,2.228,0.494,3.548,2.063,3.548c0.742,0,1.732-0.413,2.228-0.907l0.33,1.072
			c-3.878,2.311-7.508,5.197-10.726,8.416c-2.723-3.549-6.105-6.354-10.479-7.674v-0.99c3.63,0.083,4.208-1.484,4.208-4.785V19.216z
			"/>
		<path fill="#FFFFFF" d="M317.634,16.081c2.971,3.218,6.271,6.435,10.479,8.085v0.99c-3.218,0-4.455,1.073-4.455,4.291v19.306
			c0,2.063,1.237,3.217,2.64,3.217c1.155,0,1.897-0.66,3.135-1.484l0.413,0.824l-11.881,9.984
			c-6.601-4.209-6.683-8.911-6.683-11.717v-20.13c0-2.558,0-4.456-1.732-4.456c-0.743,0-1.98,0.66-2.723,1.32l-0.743-0.825
			L317.634,16.081z M323.409,6.758c0,3.383-3.3,5.775-6.766,7.673c-2.475-2.063-5.115-4.95-5.115-8.003
			c0-3.382,3.218-5.363,5.94-5.363C320.439,1.065,323.409,3.045,323.409,6.758z"/>
		<path fill="#FFFFFF" d="M347.003,49.743c0,1.566,0.66,2.557,2.311,2.64v0.99c-4.208,1.155-7.013,4.538-8.415,7.921
			c-2.723-3.796-6.105-6.849-10.479-7.921v-0.99h1.32c2.31,0,2.888-1.402,2.888-4.538V29.447c0-2.888-1.32-3.96-2.888-3.96
			c-0.908,0-1.98,0.908-2.558,1.568l-0.66-1.073l10.891-9.9c4.043,2.228,7.508,4.538,7.59,9.9l13.532-9.9
			c2.227,3.218,5.527,6.435,9.734,8.085v0.99c-3.217,0-4.455,1.073-4.455,4.291v18.728c0,2.641,1.238,3.795,2.641,3.795
			c1.154,0,1.896-0.66,3.135-1.484l0.412,0.824l-11.881,9.984c-6.599-4.209-6.682-8.911-6.682-11.717V28.292
			c0-1.485-0.412-3.383-1.979-3.383c-0.825,0-1.32,0.33-1.98,0.743l-2.476,1.732V49.743z"/>
		<path fill="#FFFFFF" d="M373.072,29.942c0-6.023,11.303-5.528,19.637-13.861c4.371,4.62,10.722,8.133,16.005,8.946v1.119
			c-3.135,0-3.96,1.155-3.96,4.125V53.95c0,1.238,1.154,2.311,2.311,3.795c1.072,1.485,2.227,3.383,2.227,6.436
			c0,9.9-10.561,15.099-19.223,15.099c-5.611,0-15.924-0.825-15.924-8.581c0-3.465,2.971-5.445,6.188-5.445
			c3.219,0,7.262,1.486,7.178,5.281c0,5.692-5.115,4.289-5.115,5.775c0,1.319,3.961,1.484,5.033,1.484
			c5.281,0,11.469-2.228,11.469-8.415c0-6.188-6.354-7.426-6.354-17.491c-4.125,2.888-8.086,6.023-11.799,9.406
			c-6.848-4.043-7.672-6.436-7.672-11.387V29.942z M392.378,28.952c-2.477-1.073-4.785-2.558-6.932-4.29v23.925
			c0,2.477,0.496,4.703,2.063,4.703c0.412,0,1.072-0.082,1.732-0.577l3.137-2.31V28.952z"/>
		<path fill="#FFFFFF" d="M425.873,43.308c0,3.547,0.33,7.343,3.053,7.343c2.227,0,4.125-1.567,5.279-2.31l0.66,0.824
			l-13.695,12.129c-2.557-3.879-7.26-7.921-11.881-8.911v-1.237c0.66,0.164,1.238,0.247,1.732,0.247
			c2.229,0,2.477-0.907,2.477-3.465v-21.79h-4.199V25.02c8.664-2.393,12.613-12.404,15.09-20.324h1.484v16.831h8.416v4.566h-8.416
			V43.308z"/>
		<path fill="#FFFFFF" d="M437.255,23.094c8.004,0.248,17.574-1.402,23.02-7.013c7.756,5.445,8.662,8.745,8.662,20.131
			c0,14.521-1.318,16.254-8.166,17.903c-4.539,1.073-7.592,2.723-9.902,7.179c-4.701-4.291-10.313-8.004-16.664-9.736v-0.99
			c2.887-0.247,3.051-2.393,3.051-3.383V23.094z M449.632,46.938c2.641,1.32,4.949,3.3,6.93,5.115V30.932
			c0-3.795-1.154-6.435-6.93-7.673V46.938z"/>
		<path fill="#FFFFFF" d="M487.498,49.743c0,1.566,0.66,2.557,2.311,2.64v0.99c-4.207,1.155-7.012,4.538-8.414,7.921
			c-2.723-3.796-6.105-6.849-10.479-7.921v-0.99h1.32c2.309,0,2.887-1.402,2.887-4.538V29.447c0-2.888-1.32-3.96-2.887-3.96
			c-0.908,0-1.98,0.908-2.559,1.568l-0.66-1.073l10.891-9.9c4.043,2.228,7.508,4.538,7.59,9.9l13.531-9.9
			c2.229,3.218,5.527,6.435,9.736,8.085v0.99c-3.219,0-4.455,1.073-4.455,4.291v18.728c0,2.641,1.236,3.795,2.639,3.795
			c1.156,0,1.898-0.66,3.137-1.484l0.412,0.824l-11.881,9.984c-6.6-4.209-6.684-8.911-6.684-11.717V28.292
			c0-1.485-0.412-3.383-1.979-3.383c-0.826,0-1.32,0.33-1.98,0.743l-2.477,1.732V49.743z"/>
	</g>
	<g>
		<path fill="#FFFFFF" d="M48.203,7.607c0.836,0.836,1.877,2.906,2.073,4.065l0.127,0.322c2.251-9.137,9.855-10.896,20.648-10.896
			h0.495v1.483h-1.813c-6.422,0-7.493,4.526-7.493,10.454v12.932l13.503-9.883c4.774,5.764,5.765,8.068,5.765,13.669v15.976
			c0,11.531-1.641,19.606-11.194,26.438c-3.788,2.715-8.068,4.776-12.186,6.999l-0.574-1.154
			c8.315-3.702,11.602-8.729,11.602-23.557V30.164c0-2.634-0.33-5.269-2.387-5.269c-0.825,0-1.4,0.326-1.812,0.659l-2.717,1.976
			v21.571c0,2.225,0.492,3.547,2.058,3.547c0.742,0,1.728-0.414,2.222-0.912l0.332,1.072c-3.871,2.309-7.494,5.195-10.708,8.409
			c-2.717-3.542-6.092-6.353-10.457-7.67v-0.983c3.624,0.084,4.202-1.484,4.202-4.775V19.213c0-3.525-0.708-7.41-1.673-9.662
			L48.203,7.607z"/>
		<path fill="#FFFFFF" d="M97.395,40.589c-0.164-0.905-0.246-1.814-0.246-3.956c0-4.275,0.163-9.71,0.246-15.146h0.165l7.737,13.998
			L97.395,40.589z M106.778,16.056l-12.925,5.517c-7.656,3.292-8.563,6.174-8.563,19.677c0,11.523,5.518,16.141,15.728,19.932
			c4.938-4.698,10.618-8.326,15.887-12.362l-0.578-0.901c-2.058,1.232-4.691,3.375-7.409,3.375c-5.679,0-10.043-4.284-11.279-9.223
			l18.195-11.527L106.778,16.056z"/>
		<g>
			<path fill="#FFFFFF" d="M20.953,14.742c0.057,0.191,0.064,0.997,0.064,0.997c-10.625,5.25-13.022,30.066,0.307,34.758
				c9.156,3.224,19.631,1.246,23.545-10.084c0.25,0.021,1.094,0.005,1.094,0.005c-0.125,1.438-3.122,22.464-23.035,21.888
				C3.643,61.747,0,46.559,0,39.056C0,32.181,3.803,19.007,20.953,14.742z"/>
			<path fill="#FFFFFF" d="M36.234,5.625c4.172,0.971,5.275-4.192-2.162-4.192c-0.016-0.078-0.078-0.688-0.097-0.762
				c0,0,3.878-1.004,6.675-0.254c2.847,0.764,6.105,3.139,6.105,8.329c0,5.573-6.605,10.871-15.811,8.226
				c-9.061-2.604-15.333-4.342-18.49-5.288c-5.693-1.706-7.737,4.613-3.05,6.645c0,0-0.333,0.636-0.394,0.776
				c-3.799-0.625-7.457-4.582-7.422-9.047c0.035-4.453,1.824-6.399,4.167-7.915c1.947-1.259,5.213-2.638,11.706-1.651
				C20.441,0.945,34.02,5.11,36.234,5.625z"/>
			<polygon fill="#FFFFFF" points="35.16,6.651 35.16,56.136 36.277,56.136 36.277,6.636 			"/>
			<path fill="#FFFFFF" d="M11.426,29.965l18.777-11.927l0.207,0.103l0.006,2.55v14.6c0,1.814,0.344,5.325-5.881,9.382
				l-10.084,6.406l-0.438-1.041c0,0,4.869-3.058,4.869-3.097c0-0.055-0.012-20.381-0.012-20.381l-6.822,4.333L11.426,29.965z"/>
		</g>
	</g>
</g>
</svg>
